<?xml version="1.0" encoding="UTF-8" standalone="no"?>
<!-- Created with Inkscape (http://www.inkscape.org/) -->

<svg
   xmlns:dc="http://purl.org/dc/elements/1.1/"
   xmlns:cc="http://creativecommons.org/ns#"
   xmlns:rdf="http://www.w3.org/1999/02/22-rdf-syntax-ns#"
   xmlns:svg="http://www.w3.org/2000/svg"
   xmlns="http://www.w3.org/2000/svg"
   xmlns:sodipodi="http://sodipodi.sourceforge.net/DTD/sodipodi-0.dtd"
   xmlns:inkscape="http://www.inkscape.org/namespaces/inkscape"
   id="svg2"
   version="1.1"
   inkscape:version="0.91 r13725"
   xml:space="preserve"
   width="647.38373"
   height="776.98749"
   viewBox="0 0 647.38373 776.98749"
   sodipodi:docname="workflow.svg"><metadata
     id="metadata8"><rdf:RDF><cc:Work
         rdf:about=""><dc:format>image/svg+xml</dc:format><dc:type
           rdf:resource="http://purl.org/dc/dcmitype/StillImage" /><dc:title></dc:title></cc:Work></rdf:RDF></metadata><defs
     id="defs6"><clipPath
       clipPathUnits="userSpaceOnUse"
       id="clipPath16"><path
         d="m 0,621.59 517.907,0 L 517.907,0 0,0 0,621.59 Z"
         id="path18"
         inkscape:connector-curvature="0" /></clipPath><clipPath
       clipPathUnits="userSpaceOnUse"
       id="clipPath82"><path
         d="m 0,621.59 517.907,0 L 517.907,0 0,0 0,621.59 Z"
         id="path84"
         inkscape:connector-curvature="0" /></clipPath><clipPath
       clipPathUnits="userSpaceOnUse"
       id="clipPath104"><path
         d="m 0,621.59 517.907,0 L 517.907,0 0,0 0,621.59 Z"
         id="path106"
         inkscape:connector-curvature="0" /></clipPath><clipPath
       clipPathUnits="userSpaceOnUse"
       id="clipPath112"><path
         d="m 4.86621,462.269 512.53079,0 0,-224.52 -512.53079,0 0,224.52 z"
         id="path114"
         inkscape:connector-curvature="0" /></clipPath><clipPath
       clipPathUnits="userSpaceOnUse"
       id="clipPath126"><path
         d="m 4.35622,462.779 513.55078,0 0,-225.54 -513.55078,0 0,225.54 z"
         id="path128"
         inkscape:connector-curvature="0" /></clipPath><clipPath
       clipPathUnits="userSpaceOnUse"
       id="clipPath152"><path
         d="m 0,621.59 517.907,0 L 517.907,0 0,0 0,621.59 Z"
         id="path154"
         inkscape:connector-curvature="0" /></clipPath><clipPath
       clipPathUnits="userSpaceOnUse"
       id="clipPath182"><path
         d="m 0,621.59 517.907,0 L 517.907,0 0,0 0,621.59 Z"
         id="path184"
         inkscape:connector-curvature="0" /></clipPath><clipPath
       clipPathUnits="userSpaceOnUse"
       id="clipPath210"><path
         d="m 0,621.59 517.907,0 L 517.907,0 0,0 0,621.59 Z"
         id="path212"
         inkscape:connector-curvature="0" /></clipPath><clipPath
       clipPathUnits="userSpaceOnUse"
       id="clipPath218"><path
         d="m 4.86621,225.03 512.53079,0 0,-224.520005 -512.53079,0 0,224.520005 z"
         id="path220"
         inkscape:connector-curvature="0" /></clipPath><clipPath
       clipPathUnits="userSpaceOnUse"
       id="clipPath232"><path
         d="m 4.35622,225.54 513.55078,0 0,-225.54 -513.55078,0 0,225.54 z"
         id="path234"
         inkscape:connector-curvature="0" /></clipPath><clipPath
       clipPathUnits="userSpaceOnUse"
       id="clipPath246"><path
         d="m 253.871,258.137 147.642,0 0,-82.407 -147.642,0 0,82.407 z"
         id="path248"
         inkscape:connector-curvature="0" /></clipPath><clipPath
       clipPathUnits="userSpaceOnUse"
       id="clipPath270"><path
         d="m 0,621.59 517.907,0 L 517.907,0 0,0 0,621.59 Z"
         id="path272"
         inkscape:connector-curvature="0" /></clipPath><clipPath
       clipPathUnits="userSpaceOnUse"
       id="clipPath278"><path
         d="m 141.842,256.545 76.202,0 0,-79.542 -76.202,0 0,79.542 z"
         id="path280"
         inkscape:connector-curvature="0" /></clipPath><clipPath
       clipPathUnits="userSpaceOnUse"
       id="clipPath312"><path
         d="m 0,621.59 517.907,0 L 517.907,0 0,0 0,621.59 Z"
         id="path314"
         inkscape:connector-curvature="0" /></clipPath><clipPath
       clipPathUnits="userSpaceOnUse"
       id="clipPath332"><path
         d="m 0,621.59 517.907,0 L 517.907,0 0,0 0,621.59 Z"
         id="path334"
         inkscape:connector-curvature="0" /></clipPath><clipPath
       clipPathUnits="userSpaceOnUse"
       id="clipPath368"><path
         d="m 0,621.59 517.907,0 L 517.907,0 0,0 0,621.59 Z"
         id="path370"
         inkscape:connector-curvature="0" /></clipPath><clipPath
       clipPathUnits="userSpaceOnUse"
       id="clipPath398"><path
         d="m 0,621.59 517.907,0 L 517.907,0 0,0 0,621.59 Z"
         id="path400"
         inkscape:connector-curvature="0" /></clipPath></defs><sodipodi:namedview
     pagecolor="#ffffff"
     bordercolor="#666666"
     borderopacity="1"
     objecttolerance="10"
     gridtolerance="10"
     guidetolerance="10"
     inkscape:pageopacity="0"
     inkscape:pageshadow="2"
     inkscape:window-width="1920"
     inkscape:window-height="1017"
     id="namedview4"
     showgrid="false"
     inkscape:zoom="0.85909852"
     inkscape:cx="372.40765"
     inkscape:cy="288.36975"
     inkscape:window-x="-8"
     inkscape:window-y="-8"
     inkscape:window-maximized="1"
     inkscape:current-layer="g10" /><g
     id="g10"
     inkscape:groupmode="layer"
     inkscape:label="Fig4"
     transform="matrix(1.25,0,0,-1.25,0,776.9875)"><g
       id="g12"><g
         id="g14"
         clip-path="url(#clipPath16)"><text
           transform="matrix(1,0,0,-0.99167155,0,587.8848)"
           style="font-variant:normal;font-weight:normal;font-stretch:normal;font-size:20.14780045px;font-family:Arial;-inkscape-font-specification:ArialMT;writing-mode:lr-tb;fill:#000000;fill-opacity:1;fill-rule:nonzero;stroke:none"
           id="text20"><tspan
             x="0"
             y="0"
             id="tspan22">F</tspan></text>
</g></g><text
       transform="matrix(1,0,0,-0.99167155,12.2871,587.8848)"
       style="font-variant:normal;font-weight:normal;font-stretch:normal;font-size:20.14780045px;font-family:Arial;-inkscape-font-specification:ArialMT;writing-mode:lr-tb;fill:#000000;fill-opacity:1;fill-rule:nonzero;stroke:none"
       id="text24"><tspan
         x="0 5.6212363 20.1478 145.42682 156.629 171.15556 176.83723 188.03941 194.74864 200.26913 211.47131 225.99788 231.67955 241.77361 252.97578 264.17795 274.272 279.89325 286.60245"
         y="0"
         sodipodi:role="line"
         id="tspan26">IDs1D or 2D spectra</tspan></text>
<g
       id="g28"
       transform="translate(48.5806,595.1389)"><path
         d="M 0,0 103.866,0"
         style="fill:none;stroke:#000000;stroke-width:1;stroke-linecap:butt;stroke-linejoin:miter;stroke-miterlimit:8;stroke-dasharray:none;stroke-opacity:1"
         id="path30"
         inkscape:connector-curvature="0" /></g><g
       id="g32"
       transform="translate(151.438,598.1389)"><path
         d="M 0,0 6.05,-3 0,-6 0,0 Z"
         style="fill:#000000;fill-opacity:1;fill-rule:evenodd;stroke:none"
         id="path34"
         inkscape:connector-curvature="0" /></g><g
       id="g36"
       transform="translate(309.1465,595.1389)"><path
         d="M 0,0 87.021,0"
         style="fill:none;stroke:#000000;stroke-width:1;stroke-linecap:butt;stroke-linejoin:miter;stroke-miterlimit:8;stroke-dasharray:none;stroke-opacity:1"
         id="path38"
         inkscape:connector-curvature="0" /></g><g
       id="g40"
       transform="translate(392.1592,598.1389)"><path
         d="M 0,0 6.051,-3 0,-6 0,0 Z"
         style="fill:#000000;fill-opacity:1;fill-rule:evenodd;stroke:none"
         id="path42"
         inkscape:connector-curvature="0" /></g><text
       transform="matrix(1,0,0,-0.99167155,402.2656,587.8848)"
       style="font-variant:normal;font-weight:normal;font-stretch:normal;font-size:20.14780045px;font-family:Arial;-inkscape-font-specification:ArialMT;writing-mode:lr-tb;fill:#000000;fill-opacity:1;fill-rule:nonzero;stroke:none"
       id="text44"><tspan
         x="0 13.438582 24.640759 35.842937 45.936985 51.55822 62.760399 67.233208 77.327255 82.948494"
         y="0"
         sodipodi:role="line"
         id="tspan46">Peak Lists</tspan></text>
<path
       d="m 174.823,539.009 119.798,0 0,-31.5 -119.798,0 0,31.5 z"
       style="fill:none;stroke:#000000;stroke-width:0.77999997;stroke-linecap:butt;stroke-linejoin:round;stroke-miterlimit:10;stroke-dasharray:32767, 29718, 9906, 29718;stroke-dashoffset:0;stroke-opacity:1"
       id="path48"
       inkscape:connector-curvature="0" /><text
       transform="matrix(1,0,0,-0.99167155,182.0312,516.0176)"
       style="font-variant:normal;font-weight:normal;font-stretch:normal;font-size:20.14780045px;font-family:Arial;-inkscape-font-specification:ArialMT;writing-mode:lr-tb;fill:#000000;fill-opacity:1;fill-rule:nonzero;stroke:none"
       id="text50"><tspan
         x="0 10.094048 21.296225 25.769035 36.971214 47.065262 52.686497 58.267437 72.793999 88.468987 94.090225"
         y="0"
         sodipodi:role="line"
         id="tspan52">select ROIs</tspan></text>
<g
       id="g54"
       transform="translate(234.6914,584.6994)"><path
         d="M 0,0 0,-34.49"
         style="fill:none;stroke:#000000;stroke-width:1;stroke-linecap:butt;stroke-linejoin:miter;stroke-miterlimit:8;stroke-dasharray:none;stroke-opacity:1"
         id="path56"
         inkscape:connector-curvature="0" /></g><g
       id="g58"
       transform="translate(237.7168,551.2092)"><path
         d="M 0,0 -3.025,-6 -6.05,0 0,0 Z"
         style="fill:#000000;fill-opacity:1;fill-rule:evenodd;stroke:none"
         id="path60"
         inkscape:connector-curvature="0" /></g><g
       id="g62"
       transform="translate(234.6914,503.2189)"><path
         d="M 0,0 0,-45.4"
         style="fill:none;stroke:#000000;stroke-width:1;stroke-linecap:butt;stroke-linejoin:miter;stroke-miterlimit:8;stroke-dasharray:none;stroke-opacity:1"
         id="path64"
         inkscape:connector-curvature="0" /></g><g
       id="g66"
       transform="translate(237.7168,458.8185)"><path
         d="M 0,0 -3.025,-6 -6.05,0.001 0,0 Z"
         style="fill:#000000;fill-opacity:1;fill-rule:evenodd;stroke:none"
         id="path68"
         inkscape:connector-curvature="0" /></g><g
       id="g70"
       transform="translate(432.8896,575.1594)"><path
         d="M 0,0 -131.924,-115.939"
         style="fill:none;stroke:#000000;stroke-width:1;stroke-linecap:butt;stroke-linejoin:miter;stroke-miterlimit:8;stroke-dasharray:none;stroke-opacity:1"
         id="path72"
         inkscape:connector-curvature="0" /></g><g
       id="g74"
       transform="translate(299.7139,462.1281)"><path
         d="M 0,0 -2.521,-6.225 4.013,-4.49 0,0 Z"
         style="fill:#000000;fill-opacity:1;fill-rule:evenodd;stroke:none"
         id="path76"
         inkscape:connector-curvature="0" /></g><g
       id="g78"><g
         id="g80"
         clip-path="url(#clipPath82)"><text
           transform="matrix(1,0,0,-0.99166997,57.6172,602.3535)"
           style="font-variant:normal;font-weight:normal;font-stretch:normal;font-size:18.15119934px;font-family:Arial;-inkscape-font-specification:ArialMT;writing-mode:lr-tb;fill:#000000;fill-opacity:1;fill-rule:nonzero;stroke:none"
           id="text86"><tspan
             x="0 12.106851 18.151199 28.243267 37.318867 47.410934 56.486534 65.562134 69.609856 79.70192"
             y="0"
             sodipodi:role="line"
             id="tspan88">Processing</tspan><tspan
             x="236.18341 248.29027 258.38232 268.4744 277.54999 282.57788 294.68472 298.73245 307.80804 316.88364 320.93137 331.02344"
             y="-3.8117521"
             sodipodi:role="line"
             id="tspan90">Peak Picking</tspan></text>
</g></g><g
       id="g92"
       transform="translate(21.5957,579.4191)"><path
         d="M 0,0 139.962,-123.382"
         style="fill:none;stroke:#000000;stroke-width:1;stroke-linecap:butt;stroke-linejoin:miter;stroke-miterlimit:8;stroke-dasharray:none;stroke-opacity:1"
         id="path94"
         inkscape:connector-curvature="0" /></g><g
       id="g96"
       transform="translate(162.8145,458.9435)"><path
         d="M 0,0 2.512,-6.229 -4.02,-4.483 0,0 Z"
         style="fill:#000000;fill-opacity:1;fill-rule:evenodd;stroke:none"
         id="path98"
         inkscape:connector-curvature="0" /></g><g
       id="g100"><g
         id="g102"
         clip-path="url(#clipPath104)"><g
           id="g108"><g
             id="g110" /><g
             id="g116"><g
               clip-path="url(#clipPath112)"
               id="g118"
               style="opacity:0.588242"><path
                 d="m 4.866,462.269 512.531,0 0,-224.52 -512.531,0 0,224.52 z"
                 style="fill:#5b9bd5;fill-opacity:1;fill-rule:evenodd;stroke:none"
                 id="path120"
                 inkscape:connector-curvature="0" /></g></g></g><g
           id="g122"><g
             id="g124" /><g
             id="g130"><g
               clip-path="url(#clipPath126)"
               id="g132"
               style="opacity:0.588242"><path
                 d="m 4.866,462.269 512.531,0 0,-224.52 -512.531,0 0,224.52 z"
                 style="fill:none;stroke:#41719c;stroke-width:1.01999998;stroke-linecap:butt;stroke-linejoin:miter;stroke-miterlimit:8;stroke-dasharray:none;stroke-opacity:1"
                 id="path134"
                 inkscape:connector-curvature="0" /></g></g></g><g
           id="g136"
           transform="translate(114.9233,431.4894)"><path
             d="m 0,0 c 0,8.615 53.636,15.6 119.798,15.6 66.163,0 119.798,-6.985 119.798,-15.6 0,-8.616 -53.635,-15.601 -119.798,-15.601 C 53.636,-15.601 0,-8.616 0,0"
             style="fill:#5b9bd5;fill-opacity:1;fill-rule:evenodd;stroke:none"
             id="path138"
             inkscape:connector-curvature="0" /></g><g
           id="g140"
           transform="translate(114.9233,431.4894)"><path
             d="m 0,0 c 0,8.615 53.636,15.6 119.798,15.6 66.163,0 119.798,-6.985 119.798,-15.6 0,-8.616 -53.635,-15.601 -119.798,-15.601 C 53.636,-15.601 0,-8.616 0,0 Z"
             style="fill:none;stroke:#41719c;stroke-width:1.01999998;stroke-linecap:butt;stroke-linejoin:miter;stroke-miterlimit:8;stroke-dasharray:none;stroke-opacity:1"
             id="path142"
             inkscape:connector-curvature="0" /></g></g></g><text
       transform="matrix(1,0,0,-0.99167155,170.2266,424.0801)"
       style="font-variant:normal;font-weight:normal;font-stretch:normal;font-size:20.14780045px;font-family:Arial;-inkscape-font-specification:ArialMT;writing-mode:lr-tb;fill:#ffffff;fill-opacity:1;fill-rule:nonzero;stroke:none"
       id="text144"><tspan
         x="0 13.438582 20.1478 31.349977 42.552155 49.261372 60.463547 70.557594 81.759773 91.853821 101.94787 106.42068 117.62286"
         y="0"
         sodipodi:role="line"
         id="tspan146">Preprocessing</tspan></text>
<g
       id="g148"><g
         id="g150"
         clip-path="url(#clipPath152)"><g
           id="g156"
           transform="translate(234.6914,415.6789)"><path
             d="M 0,0 0,-31"
             style="fill:none;stroke:#000000;stroke-width:1;stroke-linecap:butt;stroke-linejoin:miter;stroke-miterlimit:8;stroke-dasharray:none;stroke-opacity:1"
             id="path158"
             inkscape:connector-curvature="0" /></g><g
           id="g160"
           transform="translate(231.666,385.6789)"><path
             d="M 0,0 3.025,-6 6.05,0 0,0 Z"
             style="fill:#000000;fill-opacity:1;fill-rule:evenodd;stroke:none"
             id="path162"
             inkscape:connector-curvature="0" /></g><g
           id="g164"
           transform="translate(114.9839,349.9797)"><path
             d="M 0,0 C 0,16.685 53.595,30.21 119.708,30.21 185.82,30.21 239.416,16.685 239.416,0 239.416,-16.685 185.82,-30.21 119.708,-30.21 53.595,-30.21 0,-16.685 0,0"
             style="fill:#5b9bd5;fill-opacity:1;fill-rule:evenodd;stroke:none"
             id="path166"
             inkscape:connector-curvature="0" /></g><g
           id="g168"
           transform="translate(114.9839,349.9797)"><path
             d="M 0,0 C 0,16.685 53.595,30.21 119.708,30.21 185.82,30.21 239.416,16.685 239.416,0 239.416,-16.685 185.82,-30.21 119.708,-30.21 53.595,-30.21 0,-16.685 0,0 Z"
             style="fill:none;stroke:#41719c;stroke-width:1.01999998;stroke-linecap:butt;stroke-linejoin:miter;stroke-miterlimit:8;stroke-dasharray:none;stroke-opacity:1"
             id="path170"
             inkscape:connector-curvature="0" /></g></g></g><text
       transform="matrix(1,0,0,-0.99167155,169.8047,354.5879)"
       style="font-variant:normal;font-weight:normal;font-stretch:normal;font-size:20.14780045px;font-family:Arial;-inkscape-font-specification:ArialMT;writing-mode:lr-tb;fill:#ffffff;fill-opacity:1;fill-rule:nonzero;stroke:none"
       id="text172"><tspan
         x="0 13.438582 17.911394 29.113571 40.315746 51.517925 55.990738 67.192909 73.90213 79.724846 91.652344 102.85452 107.32733 118.52951 129.73169"
         y="0"
         sodipodi:role="line"
         id="tspan174">Singular Value </tspan><tspan
         x="-1.7528586 12.773705 23.975882 34.069931 45.272106 62.035076 73.237251 84.43943 94.533478 99.006287 104.62753 109.10033 120.30251"
         y="24.197508"
         sodipodi:role="line"
         id="tspan176">Decomposition</tspan></text>
<g
       id="g178"><g
         id="g180"
         clip-path="url(#clipPath182)"><g
           id="g186"
           transform="translate(234.6914,320.0392)"><path
             d="M 0,0 0,-16.6"
             style="fill:none;stroke:#000000;stroke-width:1;stroke-linecap:butt;stroke-linejoin:miter;stroke-miterlimit:8;stroke-dasharray:none;stroke-opacity:1"
             id="path188"
             inkscape:connector-curvature="0" /></g><g
           id="g190"
           transform="translate(231.666,304.4387)"><path
             d="m 0,0 3.025,-5.999 3.025,6 L 0,0 Z"
             style="fill:#000000;fill-opacity:1;fill-rule:evenodd;stroke:none"
             id="path192"
             inkscape:connector-curvature="0" /></g><g
           id="g194"
           transform="translate(114.9233,277.9191)"><path
             d="m 0,0 c 0,8.632 53.636,15.63 119.798,15.63 66.163,0 119.798,-6.998 119.798,-15.63 0,-8.633 -53.635,-15.63 -119.798,-15.63 C 53.636,-15.63 0,-8.633 0,0"
             style="fill:#5b9bd5;fill-opacity:1;fill-rule:evenodd;stroke:none"
             id="path196"
             inkscape:connector-curvature="0" /></g><g
           id="g198"
           transform="translate(114.9233,277.9191)"><path
             d="m 0,0 c 0,8.632 53.636,15.63 119.798,15.63 66.163,0 119.798,-6.998 119.798,-15.63 0,-8.633 -53.635,-15.63 -119.798,-15.63 C 53.636,-15.63 0,-8.633 0,0 Z"
             style="fill:none;stroke:#41719c;stroke-width:1.01999998;stroke-linecap:butt;stroke-linejoin:miter;stroke-miterlimit:8;stroke-dasharray:none;stroke-opacity:1"
             id="path200"
             inkscape:connector-curvature="0" /></g></g></g><text
       transform="matrix(1,0,0,-0.99167155,188.1328,270.5098)"
       style="font-variant:normal;font-weight:normal;font-stretch:normal;font-size:20.14780045px;font-family:Arial;-inkscape-font-specification:ArialMT;writing-mode:lr-tb;fill:#ffffff;fill-opacity:1;fill-rule:nonzero;stroke:none"
       id="text202"><tspan
         x="0 13.438582 27.965147 33.646828 43.740875 53.834923 65.037102 71.746315 82.948494"
         y="0"
         sodipodi:role="line"
         id="tspan204">PC scores</tspan></text>
<g
       id="g206"><g
         id="g208"
         clip-path="url(#clipPath210)"><g
           id="g214"><g
             id="g216" /><g
             id="g222"><g
               clip-path="url(#clipPath218)"
               id="g224"
               style="opacity:0.588242"><path
                 d="m 4.866,225.029 512.531,0 0,-224.52 -512.531,0 0,224.52 z"
                 style="fill:#c00000;fill-opacity:1;fill-rule:evenodd;stroke:none"
                 id="path226"
                 inkscape:connector-curvature="0" /></g></g></g><g
           id="g228"><g
             id="g230" /><g
             id="g236"><g
               clip-path="url(#clipPath232)"
               id="g238"
               style="opacity:0.588242"><path
                 d="m 4.866,225.029 512.531,0 0,-224.52 -512.531,0 0,224.52 z"
                 style="fill:none;stroke:#41719c;stroke-width:1.01999998;stroke-linecap:butt;stroke-linejoin:miter;stroke-miterlimit:8;stroke-dasharray:none;stroke-opacity:1"
                 id="path240"
                 inkscape:connector-curvature="0" /></g></g></g><g
           id="g242"><g
             id="g244" /><g
             id="g250"><g
               clip-path="url(#clipPath246)"
               id="g252"
               style="opacity:0.588242"><g
                 transform="translate(254.1133,257.6994)"
                 id="g254"><path
                   d="M 0,0 147.157,-81.532"
                   style="fill:none;stroke:#000000;stroke-width:1;stroke-linecap:butt;stroke-linejoin:miter;stroke-miterlimit:8;stroke-dasharray:none;stroke-opacity:1"
                   id="path256"
                   inkscape:connector-curvature="0" /></g></g></g></g><g
           id="g258"
           transform="translate(401.8662,179.2746)"><path
             d="M 0,0 3.806,-5.546 -2.951,-5.238 0,0 Z"
             style="fill:#000000;fill-opacity:1;fill-rule:evenodd;stroke:none"
             id="path260"
             inkscape:connector-curvature="0" /></g></g></g><text
       transform="matrix(1,0,0,-0.99167155,329.3203,189.8613)"
       style="font-variant:normal;font-weight:normal;font-stretch:normal;font-size:20.14780045px;font-family:Arial;-inkscape-font-specification:ArialMT;writing-mode:lr-tb;fill:#000000;fill-opacity:1;fill-rule:nonzero;stroke:none"
       id="text262"><tspan
         x="0 5.6212363 11.242473 16.642082 30.080666 35.7019 46.904079 56.998127 61.47094 71.564987 77.145927 81.618736 91.712784 97.293724 108.4959 115.20512 126.4073 136.50134 140.97415 152.17633 163.37851"
         y="0"
         sodipodi:role="line"
         id="tspan264">If X axis is provided</tspan></text>
<g
       id="g266"><g
         id="g268"
         clip-path="url(#clipPath270)"><g
           id="g274"><g
             id="g276" /><g
             id="g282"><g
               clip-path="url(#clipPath278)"
               id="g284"
               style="opacity:0.588242"><g
                 transform="translate(217.6826,256.1994)"
                 id="g286"><path
                   d="M 0,0 -75.479,-78.851"
                   style="fill:none;stroke:#000000;stroke-width:1;stroke-linecap:butt;stroke-linejoin:miter;stroke-miterlimit:8;stroke-dasharray:none;stroke-opacity:1"
                   id="path288"
                   inkscape:connector-curvature="0" /></g></g></g></g><g
           id="g290"
           transform="translate(140.7031,180.1398)"><path
             d="M 0,0 -1.971,-6.417 4.388,-4.131 0,0 Z"
             style="fill:#000000;fill-opacity:1;fill-rule:evenodd;stroke:none"
             id="path292"
             inkscape:connector-curvature="0" /></g><g
           id="g294"
           transform="translate(386.5869,142.799)"><path
             d="m 0,0 12.449,24.69 76.145,0 L 101.042,0 88.594,-24.689 l -76.145,0 L 0,0 Z"
             style="fill:#c00000;fill-opacity:1;fill-rule:evenodd;stroke:none"
             id="path296"
             inkscape:connector-curvature="0" /></g><g
           id="g298"
           transform="translate(386.5869,142.799)"><path
             d="m 0,0 12.449,24.69 76.145,0 L 101.042,0 88.594,-24.689 l -76.145,0 L 0,0 Z"
             style="fill:none;stroke:#41719c;stroke-width:1.01999998;stroke-linecap:butt;stroke-linejoin:miter;stroke-miterlimit:8;stroke-dasharray:none;stroke-opacity:1"
             id="path300"
             inkscape:connector-curvature="0" /></g></g></g><text
       transform="matrix(1,0,0,-0.99167155,415.8359,147.416)"
       style="font-variant:normal;font-weight:normal;font-stretch:normal;font-size:20.14780045px;font-family:Arial;-inkscape-font-specification:ArialMT;writing-mode:lr-tb;fill:#ffffff;fill-opacity:1;fill-rule:nonzero;stroke:none"
       id="text302"><tspan
         x="0 14.526564 25.728741 31.349977 42.552155"
         y="0"
         sodipodi:role="line"
         id="tspan304">Data </tspan><tspan
         x="-2.8408399 2.7803965 7.2532082 12.874444 18.49568 22.968493 34.17067"
         y="24.217655"
         sodipodi:role="line"
         id="tspan306">fitting</tspan></text>
<g
       id="g308"><g
         id="g310"
         clip-path="url(#clipPath312)"><g
           id="g316"
           transform="translate(88.2412,147.2697)"><path
             d="m 0,0 12.464,24.72 76.114,0 L 101.042,0 88.578,-24.721 l -76.114,0 L 0,0 Z"
             style="fill:#c00000;fill-opacity:1;fill-rule:evenodd;stroke:none"
             id="path318"
             inkscape:connector-curvature="0" /></g><g
           id="g320"
           transform="translate(88.2412,147.2697)"><path
             d="m 0,0 12.464,24.72 76.114,0 L 101.042,0 88.578,-24.721 l -76.114,0 L 0,0 Z"
             style="fill:none;stroke:#41719c;stroke-width:1.01999998;stroke-linecap:butt;stroke-linejoin:miter;stroke-miterlimit:8;stroke-dasharray:none;stroke-opacity:1"
             id="path322"
             inkscape:connector-curvature="0" /></g></g></g><text
       transform="matrix(1,0,0,-0.99167155,113.5625,139.8613)"
       style="font-variant:normal;font-weight:normal;font-stretch:normal;font-size:20.14780045px;font-family:Arial;-inkscape-font-specification:ArialMT;writing-mode:lr-tb;fill:#ffffff;fill-opacity:1;fill-rule:nonzero;stroke:none"
       id="text324"><tspan
         x="0 13.438582 17.911394 29.113571 33.586384 44.788559"
         y="0"
         sodipodi:role="line"
         id="tspan326">Biplot</tspan></text>
<g
       id="g328"><g
         id="g330"
         clip-path="url(#clipPath332)"><g
           id="g336"
           transform="translate(139.3369,113.8791)"><path
             d="M 0,0 0,-40.467"
             style="fill:none;stroke:#000000;stroke-width:1;stroke-linecap:butt;stroke-linejoin:miter;stroke-miterlimit:8;stroke-dasharray:none;stroke-opacity:1"
             id="path338"
             inkscape:connector-curvature="0" /></g><g
           id="g340"
           transform="translate(142.3623,74.4113)"><path
             d="m 0,0 -3.025,-5.999 -3.025,6 L 0,0 Z"
             style="fill:#000000;fill-opacity:1;fill-rule:evenodd;stroke:none"
             id="path342"
             inkscape:connector-curvature="0" /></g><g
           id="g344"
           transform="translate(449.2998,581.1594)"><path
             d="M 0,0 0,-176.714"
             style="fill:none;stroke:#000000;stroke-width:1;stroke-linecap:butt;stroke-linejoin:miter;stroke-miterlimit:8;stroke-dasharray:none;stroke-opacity:1"
             id="path346"
             inkscape:connector-curvature="0" /></g><g
           id="g348"
           transform="translate(452.3252,405.4445)"><path
             d="m 0,0 -3.025,-5.999 -3.025,6 L 0,0 Z"
             style="fill:#000000;fill-opacity:1;fill-rule:evenodd;stroke:none"
             id="path350"
             inkscape:connector-curvature="0" /></g><g
           id="g352"
           transform="translate(362.4463,350.009)"><path
             d="m 0,0 c 0,16.701 34.416,30.24 76.87,30.24 42.455,0 76.871,-13.539 76.871,-30.24 0,-16.701 -34.416,-30.24 -76.871,-30.24 C 34.416,-30.24 0,-16.701 0,0"
             style="fill:#5b9bd5;fill-opacity:1;fill-rule:evenodd;stroke:none"
             id="path354"
             inkscape:connector-curvature="0" /></g><g
           id="g356"
           transform="translate(362.4463,350.009)"><path
             d="m 0,0 c 0,16.701 34.416,30.24 76.87,30.24 42.455,0 76.871,-13.539 76.871,-30.24 0,-16.701 -34.416,-30.24 -76.871,-30.24 C 34.416,-30.24 0,-16.701 0,0 Z"
             style="fill:none;stroke:#41719c;stroke-width:1.01999998;stroke-linecap:butt;stroke-linejoin:miter;stroke-miterlimit:8;stroke-dasharray:none;stroke-opacity:1"
             id="path358"
             inkscape:connector-curvature="0" /></g></g></g><text
       transform="matrix(1,0,0,-0.99167155,393.4297,342.5879)"
       style="font-variant:normal;font-weight:normal;font-stretch:normal;font-size:20.14780045px;font-family:Arial;-inkscape-font-specification:ArialMT;writing-mode:lr-tb;fill:#ffffff;fill-opacity:1;fill-rule:nonzero;stroke:none"
       id="text360"><tspan
         x="0 14.526564 30.201551 44.728115 59.254681 64.875916 78.314499"
         y="0"
         sodipodi:role="line"
         id="tspan362">CONCISE</tspan></text>
<g
       id="g364"><g
         id="g366"
         clip-path="url(#clipPath368)"><g
           id="g372"
           transform="translate(449.2998,315.1193)"><path
             d="M 0,0 0,-142.566"
             style="fill:none;stroke:#000000;stroke-width:1;stroke-linecap:butt;stroke-linejoin:miter;stroke-miterlimit:8;stroke-dasharray:none;stroke-opacity:1"
             id="path374"
             inkscape:connector-curvature="0" /></g><g
           id="g376"
           transform="translate(452.3252,173.5529)"><path
             d="M 0,0 -3.025,-6 -6.05,0 0,0 Z"
             style="fill:#000000;fill-opacity:1;fill-rule:evenodd;stroke:none"
             id="path378"
             inkscape:connector-curvature="0" /></g><g
           id="g380"
           transform="translate(437.0781,118.5588)"><path
             d="M 0,0 0,-34.49"
             style="fill:none;stroke:#000000;stroke-width:1;stroke-linecap:butt;stroke-linejoin:miter;stroke-miterlimit:8;stroke-dasharray:none;stroke-opacity:1"
             id="path382"
             inkscape:connector-curvature="0" /></g><g
           id="g384"
           transform="translate(434.0527,85.0685)"><path
             d="M 0,0 3.025,-6 6.05,0 0,0 Z"
             style="fill:#000000;fill-opacity:1;fill-rule:evenodd;stroke:none"
             id="path386"
             inkscape:connector-curvature="0" /></g><path
           d="m 78.681,65.309 120.162,0 0,-30.9 -120.162,0 0,30.9 z"
           style="fill:#c00000;fill-opacity:1;fill-rule:evenodd;stroke:#41719c;stroke-width:1.01999998;stroke-linecap:butt;stroke-linejoin:miter;stroke-miterlimit:8;stroke-dasharray:none;stroke-opacity:1"
           id="path388"
           inkscape:connector-curvature="0" /></g></g><text
       transform="matrix(1,0,0,-0.99167155,107.7339,42.4473)"
       style="font-variant:normal;font-weight:normal;font-stretch:normal;font-size:20.14780045px;font-family:Arial;-inkscape-font-specification:ArialMT;writing-mode:lr-tb;fill:#ffffff;fill-opacity:1;fill-rule:nonzero;stroke:none"
       id="text390"><tspan
         x="0 14.526564 18.999376 30.201551 40.295601 45.916836 57.119015 63.828232"
         y="0"
         sodipodi:role="line"
         id="tspan392">Clusters</tspan></text>
<g
       id="g394"><g
         id="g396"
         clip-path="url(#clipPath398)"><path
           d="m 355.307,71.309 155.193,0 0,-28.5 -155.193,0 0,28.5 z"
           style="fill:#c00000;fill-opacity:1;fill-rule:evenodd;stroke:#41719c;stroke-width:1.01999998;stroke-linecap:butt;stroke-linejoin:miter;stroke-miterlimit:8;stroke-dasharray:none;stroke-opacity:1"
           id="path402"
           inkscape:connector-curvature="0" /></g></g><text
       transform="matrix(1,0,0,-0.99167155,364.1719,49.627)"
       style="font-variant:normal;font-weight:normal;font-stretch:normal;font-size:20.14780045px;font-family:Arial;-inkscape-font-specification:ArialMT;writing-mode:lr-tb;fill:#ffffff;fill-opacity:1;fill-rule:nonzero;stroke:none"
       id="text404"><tspan
         x="0 5.6212363 16.823414 22.444649 28.025589 33.606529 39.006142 50.208317 64.734879 70.356117 75.937057 87.139236 93.84845 99.42939 105.05063 109.52344 126.28641"
         y="0"
         sodipodi:role="line"
         id="tspan406">[Lt], pH, or time</tspan></text>
<text
       transform="matrix(1,0,0,-0.99167155,5.4604688,199.7767)"
       style="font-variant:normal;font-weight:bold;font-stretch:normal;font-size:20.14780045px;font-family:Arial;-inkscape-font-specification:Arial-BoldMT;writing-mode:lr-tb;fill:#1f4e79;fill-opacity:1;fill-rule:nonzero;stroke:none"
       id="text408"><tspan
         x="0 12.290158 26.816721 40.255306 54.822163 69.449463 80.69194 92.982094 104.18427 109.80551 121.00769 132.20987 137.8311"
         y="0"
         sodipodi:role="line"
         id="tspan410">TRENDanalysis</tspan><tspan
         x="5.3593149 17.649473 32.176037 45.61462 60.18148 74.748337 80.611351 95.137909 111.90088"
         y="-246.34715"
         sodipodi:role="line"
         id="tspan412">TREND NMR</tspan></text>
</g></svg>